<mxfile host="65bd71144e">
    <diagram id="VsDZFpl_Vk4CbNXMc5UR" name="Page-1">
        <mxGraphModel dx="187" dy="285" grid="1" gridSize="10" guides="1" tooltips="1" connect="1" arrows="1" fold="1" page="1" pageScale="1" pageWidth="827" pageHeight="1169" math="1" shadow="0">
            <root>
                <mxCell id="0"/>
                <mxCell id="1" parent="0"/>
                <mxCell id="46" value="" style="group;fontColor=#000000;" parent="1" vertex="1" connectable="0">
                    <mxGeometry x="530" y="258" width="180" height="140.57" as="geometry"/>
                </mxCell>
                <mxCell id="2" value="\(M_{leaf} = \{0,\ 1,\ 3,\ 9,\ 12,\ 26\}\)" style="text;html=1;align=center;verticalAlign=middle;resizable=0;points=[];autosize=1;strokeColor=none;fillColor=none;fontColor=#000000;" parent="46" vertex="1">
                    <mxGeometry width="210" height="20" as="geometry"/>
                </mxCell>
                <mxCell id="8" value="\(B_{0} = \{0,\ 1,\ 3\}\)" style="text;html=1;align=center;verticalAlign=middle;resizable=0;points=[];autosize=1;strokeColor=none;fillColor=none;fontColor=#000000;" parent="46" vertex="1">
                    <mxGeometry x="12.857142857142856" y="17.142682926829266" width="130" height="20" as="geometry"/>
                </mxCell>
                <mxCell id="9" value="\(B_{1} = \{9,\ 12\}\)" style="text;html=1;align=center;verticalAlign=middle;resizable=0;points=[];autosize=1;strokeColor=none;fillColor=none;fontColor=#000000;" parent="46" vertex="1">
                    <mxGeometry x="12.857142857142856" y="34.28536585365853" width="120" height="20" as="geometry"/>
                </mxCell>
                <mxCell id="11" value="\(B_{3} = \{26\}\)" style="text;html=1;align=center;verticalAlign=middle;resizable=0;points=[];autosize=1;strokeColor=none;fillColor=none;fontColor=#000000;" parent="46" vertex="1">
                    <mxGeometry x="13.714285714285714" y="51.428048780487806" width="100" height="20" as="geometry"/>
                </mxCell>
                <mxCell id="32" value="\(M_{leaf + 1} = \{0,\ 1,\ 3\}\)" style="text;html=1;align=center;verticalAlign=middle;resizable=0;points=[];autosize=1;strokeColor=none;fillColor=none;fontColor=#000000;" parent="46" vertex="1">
                    <mxGeometry x="28.285714285714285" y="78.85634146341464" width="160" height="20" as="geometry"/>
                </mxCell>
                <mxCell id="33" value="\(B_{0} = \{0,\ 1,\ 3\}\)" style="text;html=1;align=center;verticalAlign=middle;resizable=0;points=[];autosize=1;strokeColor=none;fillColor=none;fontColor=#000000;" parent="46" vertex="1">
                    <mxGeometry x="54" y="95.99902439024392" width="130" height="20" as="geometry"/>
                </mxCell>
                <mxCell id="39" value="\(M_{root} = \{0\}\)" style="text;html=1;align=center;verticalAlign=middle;resizable=0;points=[];autosize=1;strokeColor=none;fillColor=none;fontColor=#000000;" parent="46" vertex="1">
                    <mxGeometry x="70.28571428571428" y="123.42731707317073" width="110" height="20" as="geometry"/>
                </mxCell>
                <mxCell id="44" value="" style="endArrow=none;html=1;fontColor=#000000;strokeColor=#000000;" parent="46" edge="1">
                    <mxGeometry width="50" height="50" relative="1" as="geometry">
                        <mxPoint x="28.285714285714285" y="73.71353658536586" as="sourcePoint"/>
                        <mxPoint x="105.42857142857143" y="73.71353658536586" as="targetPoint"/>
                    </mxGeometry>
                </mxCell>
                <mxCell id="45" value="" style="endArrow=none;html=1;fontColor=#000000;strokeColor=#000000;" parent="46" edge="1">
                    <mxGeometry width="50" height="50" relative="1" as="geometry">
                        <mxPoint x="70.28571428571428" y="117.9416585365854" as="sourcePoint"/>
                        <mxPoint x="147.42857142857142" y="117.9416585365854" as="targetPoint"/>
                    </mxGeometry>
                </mxCell>
                <mxCell id="14" value="0" style="ellipse;whiteSpace=wrap;html=1;strokeColor=#000000;fontColor=#030303;" parent="1" vertex="1">
                    <mxGeometry x="241" y="380" width="20" height="20" as="geometry"/>
                </mxCell>
                <mxCell id="15" value="1" style="ellipse;whiteSpace=wrap;html=1;strokeColor=#000000;fontColor=#030303;" parent="1" vertex="1">
                    <mxGeometry x="263" y="380" width="20" height="20" as="geometry"/>
                </mxCell>
                <mxCell id="16" value="3" style="ellipse;whiteSpace=wrap;html=1;strokeColor=#000000;fontColor=#030303;" parent="1" vertex="1">
                    <mxGeometry x="286" y="380" width="20" height="20" as="geometry"/>
                </mxCell>
                <mxCell id="17" value="9" style="ellipse;whiteSpace=wrap;html=1;strokeColor=#000000;fontColor=#030303;" parent="1" vertex="1">
                    <mxGeometry x="325" y="380" width="20" height="20" as="geometry"/>
                </mxCell>
                <mxCell id="18" value="12" style="ellipse;whiteSpace=wrap;html=1;strokeColor=#000000;fontColor=#030303;" parent="1" vertex="1">
                    <mxGeometry x="347" y="380" width="20" height="20" as="geometry"/>
                </mxCell>
                <mxCell id="20" value="26" style="ellipse;whiteSpace=wrap;html=1;strokeColor=#000000;fontColor=#030303;" parent="1" vertex="1">
                    <mxGeometry x="385" y="380" width="20" height="20" as="geometry"/>
                </mxCell>
                <mxCell id="25" style="edgeStyle=none;html=1;exitX=0.5;exitY=1;exitDx=0;exitDy=0;entryX=0.5;entryY=0;entryDx=0;entryDy=0;strokeColor=#030303;" parent="1" source="22" target="14" edge="1">
                    <mxGeometry relative="1" as="geometry"/>
                </mxCell>
                <mxCell id="26" style="edgeStyle=none;html=1;exitX=0.5;exitY=1;exitDx=0;exitDy=0;entryX=0.5;entryY=0;entryDx=0;entryDy=0;strokeColor=#030303;" parent="1" source="22" target="15" edge="1">
                    <mxGeometry relative="1" as="geometry"/>
                </mxCell>
                <mxCell id="27" style="edgeStyle=none;html=1;exitX=0.5;exitY=1;exitDx=0;exitDy=0;entryX=0.5;entryY=0;entryDx=0;entryDy=0;strokeColor=#030303;" parent="1" source="22" target="16" edge="1">
                    <mxGeometry relative="1" as="geometry"/>
                </mxCell>
                <mxCell id="22" value="0" style="ellipse;whiteSpace=wrap;html=1;strokeColor=#000000;fontColor=#030303;" parent="1" vertex="1">
                    <mxGeometry x="266" y="320" width="20" height="20" as="geometry"/>
                </mxCell>
                <mxCell id="28" style="edgeStyle=none;html=1;exitX=0.5;exitY=1;exitDx=0;exitDy=0;entryX=0.5;entryY=0;entryDx=0;entryDy=0;strokeColor=#030303;" parent="1" source="23" target="17" edge="1">
                    <mxGeometry relative="1" as="geometry"/>
                </mxCell>
                <mxCell id="29" style="edgeStyle=none;html=1;exitX=0.5;exitY=1;exitDx=0;exitDy=0;entryX=0.5;entryY=0;entryDx=0;entryDy=0;strokeColor=#030303;" parent="1" source="23" target="18" edge="1">
                    <mxGeometry relative="1" as="geometry"/>
                </mxCell>
                <mxCell id="23" value="1" style="ellipse;whiteSpace=wrap;html=1;strokeColor=#000000;fontColor=#030303;" parent="1" vertex="1">
                    <mxGeometry x="335" y="320" width="20" height="20" as="geometry"/>
                </mxCell>
                <mxCell id="30" style="edgeStyle=none;html=1;exitX=0.5;exitY=1;exitDx=0;exitDy=0;entryX=0.5;entryY=0;entryDx=0;entryDy=0;strokeColor=#030303;" parent="1" source="24" target="20" edge="1">
                    <mxGeometry relative="1" as="geometry"/>
                </mxCell>
                <mxCell id="24" value="3" style="ellipse;whiteSpace=wrap;html=1;strokeColor=#000000;fontColor=#030303;" parent="1" vertex="1">
                    <mxGeometry x="385" y="320" width="20" height="20" as="geometry"/>
                </mxCell>
                <mxCell id="35" style="edgeStyle=none;html=1;exitX=0.5;exitY=1;exitDx=0;exitDy=0;entryX=0.5;entryY=0;entryDx=0;entryDy=0;strokeColor=#030303;" parent="1" source="34" target="22" edge="1">
                    <mxGeometry relative="1" as="geometry"/>
                </mxCell>
                <mxCell id="36" style="edgeStyle=none;html=1;exitX=0.5;exitY=1;exitDx=0;exitDy=0;entryX=0.5;entryY=0;entryDx=0;entryDy=0;strokeColor=#030303;" parent="1" source="34" target="23" edge="1">
                    <mxGeometry relative="1" as="geometry"/>
                </mxCell>
                <mxCell id="37" style="edgeStyle=none;html=1;exitX=0.5;exitY=1;exitDx=0;exitDy=0;entryX=0.5;entryY=0;entryDx=0;entryDy=0;strokeColor=#030303;" parent="1" source="34" target="24" edge="1">
                    <mxGeometry relative="1" as="geometry"/>
                </mxCell>
                <mxCell id="34" value="0" style="ellipse;whiteSpace=wrap;html=1;strokeColor=#080808;fontColor=#030303;" parent="1" vertex="1">
                    <mxGeometry x="335" y="260" width="20" height="20" as="geometry"/>
                </mxCell>
                <mxCell id="41" value="\(M_{leaf}\ d=2\)" style="text;html=1;align=center;verticalAlign=middle;resizable=0;points=[];autosize=1;strokeColor=none;fillColor=none;fontColor=#000000;" parent="1" vertex="1">
                    <mxGeometry x="414" y="380" width="100" height="20" as="geometry"/>
                </mxCell>
                <mxCell id="42" value="\(M_{leaf+1}\ d=1\)" style="text;html=1;align=center;verticalAlign=middle;resizable=0;points=[];autosize=1;strokeColor=none;fillColor=none;fontColor=#000000;" parent="1" vertex="1">
                    <mxGeometry x="415" y="321" width="110" height="20" as="geometry"/>
                </mxCell>
                <mxCell id="43" value="\(M_{root}\ d=0\)" style="text;html=1;align=center;verticalAlign=middle;resizable=0;points=[];autosize=1;strokeColor=none;fillColor=none;fontColor=#000000;" parent="1" vertex="1">
                    <mxGeometry x="414" y="261" width="100" height="20" as="geometry"/>
                </mxCell>
            </root>
        </mxGraphModel>
    </diagram>
</mxfile>